<?xml version="1.0" encoding="us-ascii" standalone="no"?><svg xmlns="http://www.w3.org/2000/svg" xmlns:xlink="http://www.w3.org/1999/xlink" contentStyleType="text/css" height="1230px" preserveAspectRatio="none" style="width:1604px;height:1230px;background:#FFFFFF;" version="1.1" viewBox="0 0 1604 1230" width="1604px" zoomAndPan="magnify"><defs/><g><line style="stroke:#181818;stroke-width:0.5;stroke-dasharray:5.0,5.0;" x1="23" x2="23" y1="81.4883" y2="1149.7363"/><line style="stroke:#181818;stroke-width:0.5;stroke-dasharray:5.0,5.0;" x1="101" x2="101" y1="81.4883" y2="1149.7363"/><line style="stroke:#181818;stroke-width:0.5;stroke-dasharray:5.0,5.0;" x1="253.5" x2="253.5" y1="81.4883" y2="1149.7363"/><line style="stroke:#181818;stroke-width:0.5;stroke-dasharray:5.0,5.0;" x1="486.5" x2="486.5" y1="81.4883" y2="1149.7363"/><line style="stroke:#181818;stroke-width:0.5;stroke-dasharray:5.0,5.0;" x1="941" x2="941" y1="81.4883" y2="1149.7363"/><line style="stroke:#181818;stroke-width:0.5;stroke-dasharray:5.0,5.0;" x1="1174.5" x2="1174.5" y1="81.4883" y2="1149.7363"/><line style="stroke:#181818;stroke-width:0.5;stroke-dasharray:5.0,5.0;" x1="1514.5" x2="1514.5" y1="81.4883" y2="1149.7363"/><text fill="#000000" font-family="sans-serif" font-size="14" lengthAdjust="spacing" textLength="31" x="5" y="78.5352">User</text><ellipse cx="23.5" cy="13.5" fill="#E2E2F0" rx="8" ry="8" style="stroke:#181818;stroke-width:0.5;"/><path d="M23.5,21.5 L23.5,48.5 M10.5,29.5 L36.5,29.5 M23.5,48.5 L10.5,63.5 M23.5,48.5 L36.5,63.5 " fill="none" style="stroke:#181818;stroke-width:0.5;"/><text fill="#000000" font-family="sans-serif" font-size="14" lengthAdjust="spacing" textLength="31" x="5" y="1162.2715">User</text><ellipse cx="23.5" cy="1173.7246" fill="#E2E2F0" rx="8" ry="8" style="stroke:#181818;stroke-width:0.5;"/><path d="M23.5,1181.7246 L23.5,1208.7246 M10.5,1189.7246 L36.5,1189.7246 M23.5,1208.7246 L10.5,1223.7246 M23.5,1208.7246 L36.5,1223.7246 " fill="none" style="stroke:#181818;stroke-width:0.5;"/><rect fill="#E2E2F0" height="30.4883" rx="2.5" ry="2.5" style="stroke:#181818;stroke-width:0.5;" width="61" x="71" y="50"/><text fill="#000000" font-family="sans-serif" font-size="14" lengthAdjust="spacing" textLength="47" x="78" y="70.5352">MyApp</text><rect fill="#E2E2F0" height="30.4883" rx="2.5" ry="2.5" style="stroke:#181818;stroke-width:0.5;" width="61" x="71" y="1148.7363"/><text fill="#000000" font-family="sans-serif" font-size="14" lengthAdjust="spacing" textLength="47" x="78" y="1169.2715">MyApp</text><rect fill="#E2E2F0" height="30.4883" rx="2.5" ry="2.5" style="stroke:#181818;stroke-width:0.5;" width="106" x="200.5" y="50"/><text fill="#000000" font-family="sans-serif" font-size="14" lengthAdjust="spacing" textLength="92" x="207.5" y="70.5352">MyHomePage</text><rect fill="#E2E2F0" height="30.4883" rx="2.5" ry="2.5" style="stroke:#181818;stroke-width:0.5;" width="106" x="200.5" y="1148.7363"/><text fill="#000000" font-family="sans-serif" font-size="14" lengthAdjust="spacing" textLength="92" x="207.5" y="1169.2715">MyHomePage</text><rect fill="#E2E2F0" height="30.4883" rx="2.5" ry="2.5" style="stroke:#181818;stroke-width:0.5;" width="86" x="443.5" y="50"/><text fill="#000000" font-family="sans-serif" font-size="14" lengthAdjust="spacing" textLength="72" x="450.5" y="70.5352">CarService</text><rect fill="#E2E2F0" height="30.4883" rx="2.5" ry="2.5" style="stroke:#181818;stroke-width:0.5;" width="86" x="443.5" y="1148.7363"/><text fill="#000000" font-family="sans-serif" font-size="14" lengthAdjust="spacing" textLength="72" x="450.5" y="1169.2715">CarService</text><rect fill="#E2E2F0" height="30.4883" rx="2.5" ry="2.5" style="stroke:#181818;stroke-width:0.5;" width="123" x="880" y="50"/><text fill="#000000" font-family="sans-serif" font-size="14" lengthAdjust="spacing" textLength="109" x="887" y="70.5352">MethodChannel</text><rect fill="#E2E2F0" height="30.4883" rx="2.5" ry="2.5" style="stroke:#181818;stroke-width:0.5;" width="123" x="880" y="1148.7363"/><text fill="#000000" font-family="sans-serif" font-size="14" lengthAdjust="spacing" textLength="109" x="887" y="1169.2715">MethodChannel</text><rect fill="#E2E2F0" height="30.4883" rx="2.5" ry="2.5" style="stroke:#181818;stroke-width:0.5;" width="96" x="1126.5" y="50"/><text fill="#000000" font-family="sans-serif" font-size="14" lengthAdjust="spacing" textLength="82" x="1133.5" y="70.5352">MainActivity</text><rect fill="#E2E2F0" height="30.4883" rx="2.5" ry="2.5" style="stroke:#181818;stroke-width:0.5;" width="96" x="1126.5" y="1148.7363"/><text fill="#000000" font-family="sans-serif" font-size="14" lengthAdjust="spacing" textLength="82" x="1133.5" y="1169.2715">MainActivity</text><rect fill="#E2E2F0" height="30.4883" rx="2.5" ry="2.5" style="stroke:#181818;stroke-width:0.5;" width="156" x="1436.5" y="50"/><text fill="#000000" font-family="sans-serif" font-size="14" lengthAdjust="spacing" textLength="142" x="1443.5" y="70.5352">CarPropertyManager</text><rect fill="#E2E2F0" height="30.4883" rx="2.5" ry="2.5" style="stroke:#181818;stroke-width:0.5;" width="156" x="1436.5" y="1148.7363"/><text fill="#000000" font-family="sans-serif" font-size="14" lengthAdjust="spacing" textLength="142" x="1443.5" y="1169.2715">CarPropertyManager</text><rect fill="#EEEEEE" height="3" style="stroke:#EEEEEE;stroke-width:1.0;" width="1597.5" x="0" y="112.1436"/><line style="stroke:#000000;stroke-width:1.0;" x1="0" x2="1597.5" y1="112.1436" y2="112.1436"/><line style="stroke:#000000;stroke-width:1.0;" x1="0" x2="1597.5" y1="115.1436" y2="115.1436"/><rect fill="#EEEEEE" height="23.3105" style="stroke:#000000;stroke-width:2.0;" width="76" x="760.75" y="101.4883"/><text fill="#000000" font-family="sans-serif" font-size="13" font-weight="bold" lengthAdjust="spacing" textLength="58" x="766.75" y="118.0566">Initialize</text><polygon fill="#181818" points="89.5,152.1094,99.5,156.1094,89.5,160.1094,93.5,156.1094" style="stroke:#181818;stroke-width:1.0;"/><line style="stroke:#181818;stroke-width:1.0;" x1="23.5" x2="95.5" y1="156.1094" y2="156.1094"/><text fill="#000000" font-family="sans-serif" font-size="13" lengthAdjust="spacing" textLength="54" x="30.5" y="151.3672">runApp()</text><polygon fill="#181818" points="241.5,181.4199,251.5,185.4199,241.5,189.4199,245.5,185.4199" style="stroke:#181818;stroke-width:1.0;"/><line style="stroke:#181818;stroke-width:1.0;" x1="101.5" x2="247.5" y1="185.4199" y2="185.4199"/><text fill="#000000" font-family="sans-serif" font-size="13" lengthAdjust="spacing" textLength="128" x="108.5" y="180.6777">Create MyHomePage</text><line style="stroke:#181818;stroke-width:1.0;" x1="253.5" x2="295.5" y1="214.7305" y2="214.7305"/><line style="stroke:#181818;stroke-width:1.0;" x1="295.5" x2="295.5" y1="214.7305" y2="227.7305"/><line style="stroke:#181818;stroke-width:1.0;" x1="254.5" x2="295.5" y1="227.7305" y2="227.7305"/><polygon fill="#181818" points="264.5,223.7305,254.5,227.7305,264.5,231.7305,260.5,227.7305" style="stroke:#181818;stroke-width:1.0;"/><text fill="#000000" font-family="sans-serif" font-size="13" lengthAdjust="spacing" textLength="60" x="260.5" y="209.9883">initState()</text><polygon fill="#181818" points="474.5,253.041,484.5,257.041,474.5,261.041,478.5,257.041" style="stroke:#181818;stroke-width:1.0;"/><line style="stroke:#181818;stroke-width:1.0;" x1="253.5" x2="480.5" y1="257.041" y2="257.041"/><text fill="#000000" font-family="sans-serif" font-size="13" lengthAdjust="spacing" textLength="143" x="260.5" y="252.2988">_initializeCarManager()</text><polygon fill="#181818" points="929.5,282.3516,939.5,286.3516,929.5,290.3516,933.5,286.3516" style="stroke:#181818;stroke-width:1.0;"/><line style="stroke:#181818;stroke-width:1.0;" x1="486.5" x2="935.5" y1="286.3516" y2="286.3516"/><text fill="#000000" font-family="sans-serif" font-size="13" lengthAdjust="spacing" textLength="235" x="493.5" y="281.6094">invokeMethod("initializeCarManager")</text><polygon fill="#181818" points="1162.5,311.6621,1172.5,315.6621,1162.5,319.6621,1166.5,315.6621" style="stroke:#181818;stroke-width:1.0;"/><line style="stroke:#181818;stroke-width:1.0;" x1="941.5" x2="1168.5" y1="315.6621" y2="315.6621"/><text fill="#000000" font-family="sans-serif" font-size="13" lengthAdjust="spacing" textLength="184" x="948.5" y="310.9199">handle "initializeCarManager"</text><polygon fill="#181818" points="1502.5,340.9727,1512.5,344.9727,1502.5,348.9727,1506.5,344.9727" style="stroke:#181818;stroke-width:1.0;"/><line style="stroke:#181818;stroke-width:1.0;" x1="1174.5" x2="1508.5" y1="344.9727" y2="344.9727"/><text fill="#000000" font-family="sans-serif" font-size="13" lengthAdjust="spacing" textLength="136" x="1181.5" y="340.2305">initializeCarManager()</text><polygon fill="#181818" points="1185.5,370.2832,1175.5,374.2832,1185.5,378.2832,1181.5,374.2832" style="stroke:#181818;stroke-width:1.0;"/><line style="stroke:#181818;stroke-width:1.0;stroke-dasharray:2.0,2.0;" x1="1179.5" x2="1513.5" y1="374.2832" y2="374.2832"/><text fill="#000000" font-family="sans-serif" font-size="13" lengthAdjust="spacing" textLength="62" x="1191.5" y="369.541">Initialized</text><polygon fill="#181818" points="952.5,399.5938,942.5,403.5938,952.5,407.5938,948.5,403.5938" style="stroke:#181818;stroke-width:1.0;"/><line style="stroke:#181818;stroke-width:1.0;stroke-dasharray:2.0,2.0;" x1="946.5" x2="1173.5" y1="403.5938" y2="403.5938"/><text fill="#000000" font-family="sans-serif" font-size="13" lengthAdjust="spacing" textLength="154" x="958.5" y="398.8516">"Car Manager Initialized"</text><polygon fill="#181818" points="497.5,428.9043,487.5,432.9043,497.5,436.9043,493.5,432.9043" style="stroke:#181818;stroke-width:1.0;"/><line style="stroke:#181818;stroke-width:1.0;stroke-dasharray:2.0,2.0;" x1="491.5" x2="940.5" y1="432.9043" y2="432.9043"/><text fill="#000000" font-family="sans-serif" font-size="13" lengthAdjust="spacing" textLength="196" x="503.5" y="428.1621">return "Car Manager Initialized"</text><polygon fill="#181818" points="264.5,458.2148,254.5,462.2148,264.5,466.2148,260.5,462.2148" style="stroke:#181818;stroke-width:1.0;"/><line style="stroke:#181818;stroke-width:1.0;stroke-dasharray:2.0,2.0;" x1="258.5" x2="485.5" y1="462.2148" y2="462.2148"/><text fill="#000000" font-family="sans-serif" font-size="13" lengthAdjust="spacing" textLength="205" x="270.5" y="457.4727">_initializeCarManager() complete</text><rect fill="#EEEEEE" height="3" style="stroke:#EEEEEE;stroke-width:1.0;" width="1597.5" x="0" y="490.8701"/><line style="stroke:#000000;stroke-width:1.0;" x1="0" x2="1597.5" y1="490.8701" y2="490.8701"/><line style="stroke:#000000;stroke-width:1.0;" x1="0" x2="1597.5" y1="493.8701" y2="493.8701"/><rect fill="#EEEEEE" height="23.3105" style="stroke:#000000;stroke-width:2.0;" width="201" x="698.25" y="480.2148"/><text fill="#000000" font-family="sans-serif" font-size="13" font-weight="bold" lengthAdjust="spacing" textLength="183" x="704.25" y="496.7832">Call _getNightModeStatus()</text><polygon fill="#181818" points="474.5,530.8359,484.5,534.8359,474.5,538.8359,478.5,534.8359" style="stroke:#181818;stroke-width:1.0;"/><line style="stroke:#181818;stroke-width:1.0;" x1="253.5" x2="480.5" y1="534.8359" y2="534.8359"/><text fill="#000000" font-family="sans-serif" font-size="13" lengthAdjust="spacing" textLength="143" x="260.5" y="530.0938">_getNightModeStatus()</text><polygon fill="#181818" points="929.5,560.1465,939.5,564.1465,929.5,568.1465,933.5,564.1465" style="stroke:#181818;stroke-width:1.0;"/><line style="stroke:#181818;stroke-width:1.0;" x1="486.5" x2="935.5" y1="564.1465" y2="564.1465"/><text fill="#000000" font-family="sans-serif" font-size="13" lengthAdjust="spacing" textLength="327" x="493.5" y="559.4043">invokeMethod("getCarProperty", {propertyId, areaId})</text><polygon fill="#181818" points="1162.5,589.457,1172.5,593.457,1162.5,597.457,1166.5,593.457" style="stroke:#181818;stroke-width:1.0;"/><line style="stroke:#181818;stroke-width:1.0;" x1="941.5" x2="1168.5" y1="593.457" y2="593.457"/><text fill="#000000" font-family="sans-serif" font-size="13" lengthAdjust="spacing" textLength="149" x="948.5" y="588.7148">handle "getCarProperty"</text><polygon fill="#181818" points="1502.5,618.7676,1512.5,622.7676,1502.5,626.7676,1506.5,622.7676" style="stroke:#181818;stroke-width:1.0;"/><line style="stroke:#181818;stroke-width:1.0;" x1="1174.5" x2="1508.5" y1="622.7676" y2="622.7676"/><text fill="#000000" font-family="sans-serif" font-size="13" lengthAdjust="spacing" textLength="212" x="1181.5" y="618.0254">getCarProperty(propertyId, areaId)</text><polygon fill="#181818" points="1185.5,648.0781,1175.5,652.0781,1185.5,656.0781,1181.5,652.0781" style="stroke:#181818;stroke-width:1.0;"/><line style="stroke:#181818;stroke-width:1.0;stroke-dasharray:2.0,2.0;" x1="1179.5" x2="1513.5" y1="652.0781" y2="652.0781"/><text fill="#000000" font-family="sans-serif" font-size="13" lengthAdjust="spacing" textLength="143" x="1191.5" y="647.3359">return nightModeValue</text><polygon fill="#181818" points="952.5,677.3887,942.5,681.3887,952.5,685.3887,948.5,681.3887" style="stroke:#181818;stroke-width:1.0;"/><line style="stroke:#181818;stroke-width:1.0;stroke-dasharray:2.0,2.0;" x1="946.5" x2="1173.5" y1="681.3887" y2="681.3887"/><text fill="#000000" font-family="sans-serif" font-size="13" lengthAdjust="spacing" textLength="143" x="958.5" y="676.6465">return nightModeValue</text><polygon fill="#181818" points="497.5,706.6992,487.5,710.6992,497.5,714.6992,493.5,710.6992" style="stroke:#181818;stroke-width:1.0;"/><line style="stroke:#181818;stroke-width:1.0;stroke-dasharray:2.0,2.0;" x1="491.5" x2="940.5" y1="710.6992" y2="710.6992"/><text fill="#000000" font-family="sans-serif" font-size="13" lengthAdjust="spacing" textLength="143" x="503.5" y="705.957">return nightModeValue</text><polygon fill="#181818" points="264.5,736.0098,254.5,740.0098,264.5,744.0098,260.5,740.0098" style="stroke:#181818;stroke-width:1.0;"/><line style="stroke:#181818;stroke-width:1.0;stroke-dasharray:2.0,2.0;" x1="258.5" x2="485.5" y1="740.0098" y2="740.0098"/><text fill="#000000" font-family="sans-serif" font-size="13" lengthAdjust="spacing" textLength="143" x="270.5" y="735.2676">return nightModeValue</text><line style="stroke:#181818;stroke-width:1.0;" x1="253.5" x2="295.5" y1="769.3203" y2="769.3203"/><line style="stroke:#181818;stroke-width:1.0;" x1="295.5" x2="295.5" y1="769.3203" y2="782.3203"/><line style="stroke:#181818;stroke-width:1.0;" x1="254.5" x2="295.5" y1="782.3203" y2="782.3203"/><polygon fill="#181818" points="264.5,778.3203,254.5,782.3203,264.5,786.3203,260.5,782.3203" style="stroke:#181818;stroke-width:1.0;"/><text fill="#000000" font-family="sans-serif" font-size="13" lengthAdjust="spacing" textLength="160" x="260.5" y="764.5781">Update UI (_isNightMode)</text><rect fill="#EEEEEE" height="3" style="stroke:#EEEEEE;stroke-width:1.0;" width="1597.5" x="0" y="810.9756"/><line style="stroke:#000000;stroke-width:1.0;" x1="0" x2="1597.5" y1="810.9756" y2="810.9756"/><line style="stroke:#000000;stroke-width:1.0;" x1="0" x2="1597.5" y1="813.9756" y2="813.9756"/><rect fill="#EEEEEE" height="23.3105" style="stroke:#000000;stroke-width:2.0;" width="191" x="703.25" y="800.3203"/><text fill="#000000" font-family="sans-serif" font-size="13" font-weight="bold" lengthAdjust="spacing" textLength="173" x="709.25" y="816.8887">Call _setCabinLight(state)</text><polygon fill="#181818" points="241.5,850.9414,251.5,854.9414,241.5,858.9414,245.5,854.9414" style="stroke:#181818;stroke-width:1.0;"/><line style="stroke:#181818;stroke-width:1.0;" x1="23.5" x2="247.5" y1="854.9414" y2="854.9414"/><text fill="#000000" font-family="sans-serif" font-size="13" lengthAdjust="spacing" textLength="148" x="30.5" y="850.1992">Select Cabin Light State</text><polygon fill="#181818" points="474.5,880.252,484.5,884.252,474.5,888.252,478.5,884.252" style="stroke:#181818;stroke-width:1.0;"/><line style="stroke:#181818;stroke-width:1.0;" x1="253.5" x2="480.5" y1="884.252" y2="884.252"/><text fill="#000000" font-family="sans-serif" font-size="13" lengthAdjust="spacing" textLength="133" x="260.5" y="879.5098">_setCabinLight(state)</text><polygon fill="#181818" points="929.5,909.5625,939.5,913.5625,929.5,917.5625,933.5,913.5625" style="stroke:#181818;stroke-width:1.0;"/><line style="stroke:#181818;stroke-width:1.0;" x1="486.5" x2="935.5" y1="913.5625" y2="913.5625"/><text fill="#000000" font-family="sans-serif" font-size="13" lengthAdjust="spacing" textLength="431" x="493.5" y="908.8203">invokeMethod("setCarProperty", {propertyId, areaId, cabinLightState})</text><polygon fill="#181818" points="1162.5,938.873,1172.5,942.873,1162.5,946.873,1166.5,942.873" style="stroke:#181818;stroke-width:1.0;"/><line style="stroke:#181818;stroke-width:1.0;" x1="941.5" x2="1168.5" y1="942.873" y2="942.873"/><text fill="#000000" font-family="sans-serif" font-size="13" lengthAdjust="spacing" textLength="148" x="948.5" y="938.1309">handle "setCarProperty"</text><polygon fill="#181818" points="1502.5,968.1836,1512.5,972.1836,1502.5,976.1836,1506.5,972.1836" style="stroke:#181818;stroke-width:1.0;"/><line style="stroke:#181818;stroke-width:1.0;" x1="1174.5" x2="1508.5" y1="972.1836" y2="972.1836"/><text fill="#000000" font-family="sans-serif" font-size="13" lengthAdjust="spacing" textLength="316" x="1181.5" y="967.4414">setCarProperty(propertyId, areaId, cabinLightState)</text><polygon fill="#181818" points="1185.5,997.4941,1175.5,1001.4941,1185.5,1005.4941,1181.5,1001.4941" style="stroke:#181818;stroke-width:1.0;"/><line style="stroke:#181818;stroke-width:1.0;stroke-dasharray:2.0,2.0;" x1="1179.5" x2="1513.5" y1="1001.4941" y2="1001.4941"/><text fill="#000000" font-family="sans-serif" font-size="13" lengthAdjust="spacing" textLength="157" x="1191.5" y="996.752">Property set successfully</text><polygon fill="#181818" points="952.5,1026.8047,942.5,1030.8047,952.5,1034.8047,948.5,1030.8047" style="stroke:#181818;stroke-width:1.0;"/><line style="stroke:#181818;stroke-width:1.0;stroke-dasharray:2.0,2.0;" x1="946.5" x2="1173.5" y1="1030.8047" y2="1030.8047"/><text fill="#000000" font-family="sans-serif" font-size="13" lengthAdjust="spacing" textLength="209" x="958.5" y="1026.0625">return "Property set successfully"</text><polygon fill="#181818" points="497.5,1056.1152,487.5,1060.1152,497.5,1064.1152,493.5,1060.1152" style="stroke:#181818;stroke-width:1.0;"/><line style="stroke:#181818;stroke-width:1.0;stroke-dasharray:2.0,2.0;" x1="491.5" x2="940.5" y1="1060.1152" y2="1060.1152"/><text fill="#000000" font-family="sans-serif" font-size="13" lengthAdjust="spacing" textLength="209" x="503.5" y="1055.373">return "Property set successfully"</text><polygon fill="#181818" points="264.5,1085.4258,254.5,1089.4258,264.5,1093.4258,260.5,1089.4258" style="stroke:#181818;stroke-width:1.0;"/><line style="stroke:#181818;stroke-width:1.0;stroke-dasharray:2.0,2.0;" x1="258.5" x2="485.5" y1="1089.4258" y2="1089.4258"/><text fill="#000000" font-family="sans-serif" font-size="13" lengthAdjust="spacing" textLength="209" x="270.5" y="1084.6836">return "Property set successfully"</text><line style="stroke:#181818;stroke-width:1.0;" x1="253.5" x2="295.5" y1="1118.7363" y2="1118.7363"/><line style="stroke:#181818;stroke-width:1.0;" x1="295.5" x2="295.5" y1="1118.7363" y2="1131.7363"/><line style="stroke:#181818;stroke-width:1.0;" x1="254.5" x2="295.5" y1="1131.7363" y2="1131.7363"/><polygon fill="#181818" points="264.5,1127.7363,254.5,1131.7363,264.5,1135.7363,260.5,1131.7363" style="stroke:#181818;stroke-width:1.0;"/><text fill="#000000" font-family="sans-serif" font-size="13" lengthAdjust="spacing" textLength="177" x="260.5" y="1113.9941">Update UI (_cabinLightState)</text><!--SRC=[dLJBQiCm4BpxAnQV74X_8912oQM1fXH2UWsgl4r4LTb8SY0j_VTAiXshyYDAJv6bcTdLx4I4waB2Jg5CIY8rewmaGaEwEJ-KPGf4WLk5Xu_59xwG0pQ8zlClR4Na5kM9qHhMVGPgg8z5lZeI8P3NWlvE02PCF53DJaoVQwotqIl_8eiIfJvlY33ToRQDO3j9bajO2wOPuUmBORbC4ki8tDtNjr-0h8JvpMQ9-wuFsailO2MHQFHzw9OXbfawMstWJin7TVuiOCykxPZjfa_3w31Er_V9If-A3wmtitH88JKrVOuJyGnSWDdFES8mE_6nJSk1b_K5XpiFe73NgzuD8K-2OlthsW53g-Knq_2EWRSITIN51DqtEPZUo5o05fybHuqkIYl2EUmFg9_PuQWtHOvsu9KoE1kjYQaFSMwPkU5xFgTp-2wRzJgV0p4nNUS_qHa8rAAc_vUJzSj79g4PacZTU2MymgkH6675n27WJ6HWfCZeFtvNvlPrsAqXspDrcU_CougohhqnyMGFCsMVXrdm37LwM-H8DJW2E0Qu1sKgM4C5RWcMYWZM7EYbX6ieFcdg7qbJrvBMwoSoUYt2LW1LKOfAlLUSdsFZbuugn3vD4mBNWpbPFYgbFTz-0G00]--></g></svg>